<svg width="48" height="48" xmlns="http://www.w3.org/2000/svg">
  <defs>
    <linearGradient id="grad48" x1="0%" y1="0%" x2="100%" y2="100%">
      <stop offset="0%" style="stop-color:#0A66C2;stop-opacity:1" />
      <stop offset="100%" style="stop-color:#0077B5;stop-opacity:1" />
    </linearGradient>
  </defs>
  <!-- Background -->
  <rect width="48" height="48" fill="url(#grad48)" rx="8"/>
  <!-- Message bubble -->
  <path d="M 10 15 Q 10 12 13 12 L 33 12 Q 36 12 36 15 L 36 27 Q 36 30 33 30 L 21 30 L 14 37 L 14 30 L 13 30 Q 10 30 10 27 Z" fill="white" opacity="0.95"/>
  <!-- AI sparkle effect -->
  <circle cx="17" cy="21" r="1.8" fill="#FFA500"/>
  <circle cx="24" cy="21" r="1.8" fill="#FFA500"/>
  <circle cx="30" cy="21" r="1.8" fill="#FFA500"/>
  <!-- Small accent sparkles -->
  <circle cx="38" cy="10" r="1.2" fill="#FFD700" opacity="0.8"/>
  <polygon points="40,14 40.5,15.5 42,16 40.5,16.5 40,18 39.5,16.5 38,16 39.5,15.5" fill="#FFD700" opacity="0.8"/>
</svg>